<?xml version="1.0" standalone="no"?>
<!DOCTYPE svg PUBLIC "-//W3C//DTD SVG 20010904//EN"
 "http://www.w3.org/TR/2001/REC-SVG-20010904/DTD/svg10.dtd">
<svg version="1.0" xmlns="http://www.w3.org/2000/svg"
 width="700.000000pt" height="700.000000pt" viewBox="0 0 700.000000 700.000000"
 preserveAspectRatio="xMidYMid meet">
<metadata>
Created by potrace 1.14, written by Peter Selinger 2001-2017
</metadata>
<g transform="translate(0.000000,700.000000) scale(0.100000,-0.100000)"
fill="#000000" stroke="none">
<path d="M3278 6995 c-1 -1 -41 -5 -88 -9 -47 -4 -96 -8 -110 -10 -14 -2 -46
-7 -71 -10 -25 -4 -57 -9 -70 -11 -13 -2 -41 -6 -61 -9 -177 -27 -545 -134
-705 -207 -24 -10 -45 -19 -47 -19 -14 0 -295 -140 -376 -187 -81 -48 -281
-178 -314 -204 -6 -5 -49 -39 -96 -76 -664 -521 -1115 -1258 -1275 -2083 -25
-131 -34 -189 -41 -255 -2 -22 -7 -76 -11 -120 -15 -151 -7 -602 12 -703 1 -9
6 -42 9 -73 4 -31 9 -67 11 -80 3 -13 7 -39 10 -58 2 -18 7 -41 9 -50 3 -9 8
-32 12 -51 3 -19 7 -39 8 -45 12 -63 61 -235 67 -235 7 0 455 315 469 330 3 3
34 25 70 50 36 24 70 48 75 53 43 36 808 577 816 577 6 0 267 -171 580 -380
312 -209 572 -380 576 -380 4 1 35 35 68 76 33 42 67 83 75 92 9 9 54 64 100
122 47 57 93 114 103 125 10 11 53 63 95 115 42 52 79 97 82 100 3 3 46 55 95
115 50 61 97 119 107 130 9 11 55 67 102 125 48 58 103 125 124 149 20 25 59
72 86 105 62 78 179 219 186 226 3 3 29 34 58 70 63 76 39 48 275 335 104 127
196 239 205 250 10 11 75 91 147 178 71 86 132 157 135 157 4 0 92 -97 196
-216 104 -118 202 -230 217 -247 16 -18 40 -45 55 -62 14 -16 53 -61 87 -100
34 -38 73 -83 86 -99 13 -16 35 -41 49 -56 14 -15 50 -56 80 -90 87 -101 143
-164 154 -176 6 -6 64 -73 130 -148 125 -144 119 -140 162 -101 78 71 242 224
350 324 39 36 117 109 174 161 118 108 154 142 227 211 l52 49 -65 157 c-138
335 -318 635 -550 914 -91 110 -305 327 -413 419 -322 277 -718 504 -1121 645
-79 27 -200 66 -220 70 -8 2 -42 10 -75 19 -143 37 -251 56 -525 92 -47 6
-546 15 -552 9z"/>
<path d="M4675 3724 c-71 -88 -142 -175 -159 -194 -17 -20 -44 -53 -61 -74
-16 -21 -35 -44 -40 -50 -6 -6 -49 -58 -95 -116 -47 -58 -90 -109 -96 -115 -6
-5 -60 -71 -120 -145 -60 -74 -115 -143 -124 -154 -8 -10 -31 -37 -50 -60 -19
-23 -51 -62 -71 -86 -151 -184 -343 -418 -357 -435 -9 -11 -46 -56 -82 -100
-36 -44 -73 -89 -82 -100 -9 -11 -65 -78 -123 -150 -59 -71 -117 -141 -128
-155 -12 -14 -56 -67 -96 -118 -41 -50 -76 -92 -78 -92 -4 0 -1276 851 -1293
866 -13 10 -27 3 -90 -42 -41 -30 -91 -65 -110 -78 -19 -13 -107 -75 -195
-139 -174 -126 -409 -295 -575 -413 -58 -42 -111 -81 -119 -89 -11 -11 -3 -28
50 -106 158 -236 262 -363 459 -559 506 -507 1159 -845 1870 -969 208 -36 332
-46 595 -46 183 0 342 8 417 20 13 2 46 7 73 10 72 10 86 12 120 19 17 3 44 8
60 11 73 14 178 39 275 67 1035 291 1877 1044 2289 2047 71 172 160 459 185
593 2 13 11 61 19 108 14 75 31 192 43 285 8 72 15 485 7 485 -4 0 -33 -23
-63 -51 -72 -66 -250 -231 -320 -296 -30 -28 -74 -69 -96 -90 -41 -38 -219
-202 -278 -257 -17 -16 -80 -75 -141 -131 -60 -56 -130 -121 -155 -143 l-45
-41 -35 37 c-19 21 -138 157 -265 302 -248 284 -253 290 -293 335 -15 17 -56
64 -92 105 -36 41 -69 80 -75 86 -5 6 -64 73 -130 149 -66 76 -138 158 -160
183 l-41 44 -129 -158z"/>
</g>
</svg>
